<?xml version="1.0" standalone="yes"?>
<svg xmlns="http://www.w3.org/2000/svg" width="512" height="512">
<path style="fill:#ffffff; stroke:none;" d="M0 0L0 512L250 512L250 511C238.563 502.483 239.443 484.338 227 474.518C215.096 465.123 200.163 461.827 187 454.691C165.303 442.929 145.979 424.483 135.32 402C99.0387 325.471 171.318 246.214 249 246L240 212C225.785 221.894 209.906 229.371 195.015 214.957C190.585 210.669 188.908 203.796 184.501 199.994C177.18 193.679 168.998 191.213 163.905 182C160.243 175.375 161.539 166.299 157.972 160.325C151.804 149.992 141.643 146.722 140.174 133C139.205 123.955 145.393 117.173 145.346 109C145.302 101.318 140.968 95.2464 142.29 87C146.507 60.6916 181.562 52.5504 197 74C211.396 71.0302 224.065 73.0254 234 85L236 85C241.096 77.7662 247.857 72.4081 256 69C252.243 48.7641 263.218 28.9268 283 22.0795C289.496 19.831 297.98 22.2648 303.791 19.6867C314.017 15.1499 317.08 3.22464 330 1L300 0L233 0L0 0z"/>
<path style="fill:#010101; stroke:none;" d="M256 69C247.811 71.3637 239.65 77.1729 236 85L234 85C226.776 72.212 209.761 70.414 197 74C185.158 49.1469 146.253 62.7443 142.286 86C140.823 94.5777 145.026 100.987 144.893 109C144.743 118.002 138.872 125.093 140.3 135C142.201 148.186 152.248 151.114 157.972 161.184C161.715 167.769 160.203 176.916 164.479 184C169.661 192.585 177.932 194.314 184.501 200.649C189.264 205.243 190.605 212.173 196.004 216.786C209.68 228.472 228.425 223.328 240 212L249 246C170.377 246.052 97.1431 326.669 135.809 404C146.651 425.685 164.795 443.196 186 454.691C198.079 461.24 211.644 464.495 223 472.348C230.932 477.833 237.039 485.052 240.688 494C243.345 500.517 243.422 510.245 252.001 511.771C266.21 514.298 266.014 496.594 271.549 488C278.737 476.84 289.799 469.614 302 465.05C352.955 445.988 394.689 400.793 385.246 343C379.081 305.268 351.945 273.384 317 258.427C305.619 253.557 294.126 250.367 282 248.001C278.473 247.313 271.21 247.978 269.067 244.566C267.329 241.799 268.95 236.159 269.003 233C269.205 220.895 272.48 208.967 274 197C290.222 212.479 315.561 213.877 330.787 195.999C335.982 189.899 335.889 179.836 341.303 174.609C351.343 164.916 361.475 159.828 365.1 145C366.859 137.808 363.369 126.297 366.198 120.3C367.972 116.537 372.98 114.204 375.621 110.985C381.861 103.38 385.346 92.8206 384.96 83C384.495 71.1897 375.673 64.3658 373.596 54C372.801 50.0295 375.426 45.0311 375.829 41C376.744 31.8544 374.24 22.5034 368.956 15C358.049 -0.48938 334.09 -5.12933 318 5.13272C312.415 8.69449 308.928 16.8825 303.32 19.5478C297.495 22.3167 288.56 19.8087 282 22.0795C262.79 28.7286 251.273 49.1469 256 69z"/>
<path style="fill:#ffffff; stroke:none;" d="M346 0L346 1C362.745 3.51004 375.965 20.2274 375.971 37C375.972 42.4628 371.652 49.9748 373.198 55C376.66 66.2582 385.675 72.7995 384.907 86C384.41 94.5294 380.99 103.365 375.621 109.996C372.907 113.349 367.131 116.192 365.693 120.3C362.861 128.39 367.184 138.873 363.91 148C359.048 161.552 347.401 164.949 339.938 175.379C336.024 180.848 336.008 188.39 331.61 194C314.911 215.298 293.368 210.231 274 197C271.704 209.187 269.309 221.591 268.985 234C268.905 237.085 266.943 242.613 269.032 245.258C271.081 247.852 277.018 247.243 280 247.804C289.519 249.595 298.96 251.654 308 255.203C334.285 265.521 356.976 282.764 371.935 307C401.308 354.589 382.6 412.902 340 445.102C322.87 458.05 300.753 461.215 284 473.9C278 478.443 272.585 484.146 269.326 491C265.93 498.144 265.701 506.007 259 511L259 512L512 512L512 0L346 0M242 107C254.288 110.547 264.631 121.573 267.66 134C269.16 140.149 266.41 148.488 271 153C276.154 137.765 281.649 122.455 288.756 108C293.241 98.8781 297.789 89.8167 302.85 81C308.428 71.2838 314.414 59.149 322.326 51.1481C326.4 47.0273 334.268 48.0133 334.048 55.0038C333.793 63.1103 322.922 74.1309 318.8 81C304.01 105.648 292.573 131.685 283.67 159C279.077 173.091 277.241 188.508 295 194.214C306.254 197.83 319.074 191.985 323.518 181C325.825 175.297 323.833 168.832 329.109 164.498C340.351 155.264 351.347 151.77 352.826 135C353.385 128.656 347.764 119.683 350.272 114.043C352.304 109.475 358.383 107.777 361.96 104.671C368.355 99.1176 371.58 90.3695 370.907 82C370.015 70.9185 358.102 66.2979 356.542 56.9992C355.831 52.7644 359.588 48.8083 360.892 45C363.477 37.4514 361.822 28.1217 356.66 22.0401C347.33 11.0498 330.989 10.7112 321.105 21.0432C317.355 24.963 315.794 32.2319 310.895 34.8063C307.169 36.7645 302.86 34.4033 299 34.0934C290.388 33.4017 282.217 35.5454 276.185 42.0432C270.695 47.9577 268.51 55.0474 269.09 63C269.406 67.3235 272.314 72.86 269.393 76.7755C266.616 80.4975 260.825 81.1707 257 83.4792C248.546 88.5818 242.235 96.987 242 107M169 75.5301C158.963 77.8013 152.921 88.2919 156.562 98C158.119 102.15 162.712 106.248 161.778 111C160.193 119.062 153.307 122.629 154.094 132C155.152 144.602 166.627 143.881 172.396 152.108C176.518 157.987 171.933 167.872 175.674 175C180.554 184.302 188.962 183.516 195.721 189.513C203.681 196.575 203.577 214.402 220 208.887C235.059 203.83 231.984 191.013 226.781 180C217.118 159.546 204.952 140.655 190.8 123C186.845 118.066 171.456 106.197 178.319 99.3187C185.947 91.6743 197.531 110.065 201.576 115C216.502 133.211 228.868 152.895 239.244 174C242.729 181.089 245.46 193.881 255.996 188.543C263.973 184.502 267.288 172.461 262.297 165.004C259.588 160.956 253.804 158.277 253.402 152.996C252.475 140.807 256.776 132.601 244.996 123.394C240.274 119.704 231.309 120.183 228.183 114.786C222.695 105.313 230.451 95.1891 216.996 88.3781C208.114 83.8819 200.69 91.351 193.015 88.4969C183.485 84.9535 181.983 72.5921 169 75.5301M252 204L256 217L257 217L259 203L252 204M254 490C262.626 479.59 267.216 469.067 279 461.029C290.111 453.449 303.105 450.577 315 444.63C334.832 434.714 352.539 418.852 362.741 399C370.044 384.788 374.245 367.96 372.285 352C363.167 277.761 282.432 247.195 217 265.152C176.224 276.342 134.925 316.626 139.17 362C142.41 396.636 161.169 423.659 191 441.396C215.062 455.703 243.686 459.759 254 490z"/>
<path style="fill:#010101; stroke:none;" d="M248.055 277.742C242.382 280.086 242.382 287.914 248.055 290.258C254.996 293.126 265.427 291.047 273 292.424C294.14 296.27 314.997 307.89 327.11 326C335.282 338.218 334.079 350.338 339.264 362.892C340.684 366.331 344.312 368.006 347.891 366.758C352.735 365.07 352.085 359.14 351.985 355C351.702 343.269 347.572 330.862 341.305 321C325.906 296.768 299.46 281.156 271 277.95C264.322 277.197 254.489 275.083 248.055 277.742z"/>
</svg>
