<svg width="24" height="24" viewBox="0 0 24 24" fill="none" xmlns="http://www.w3.org/2000/svg">
<path d="M8.90002 7.55999C9.21002 3.95999 11.06 2.48999 15.11 2.48999H15.24C19.71 2.48999 21.5 4.27999 21.5 8.74999V15.27C21.5 19.74 19.71 21.53 15.24 21.53H15.11C11.09 21.53 9.24002 20.08 8.91002 16.54" fill="url(#paint0_linear_317_3153)"/>
<path d="M9 12H4" stroke="url(#paint1_linear_317_3153)" stroke-width="1.5" stroke-linecap="round" stroke-linejoin="round"/>
<path d="M13.955 12.75C14.3692 12.75 14.705 12.4142 14.705 12C14.705 11.5858 14.3692 11.25 13.955 11.25V12.75ZM9.65503 11.25H8.90503V12.75H9.65503V11.25ZM13.955 11.25H9.65503V12.75H13.955V11.25Z" fill="white"/>
<path d="M5.85 8.65002L2.5 12L5.85 15.35" stroke="url(#paint2_linear_317_3153)" stroke-width="1.5" stroke-linecap="round" stroke-linejoin="round"/>
<defs>
<linearGradient id="paint0_linear_317_3153" x1="21.5" y1="12" x2="9" y2="12" gradientUnits="userSpaceOnUse">
<stop stop-color="#E62818"/>
<stop offset="1" stop-color="#FF6A5E"/>
</linearGradient>
<linearGradient id="paint1_linear_317_3153" x1="8.99999" y1="12.4995" x2="4.03967" y2="12.4995" gradientUnits="userSpaceOnUse">
<stop stop-color="#E62818"/>
<stop offset="1" stop-color="#FF6A5E"/>
</linearGradient>
<linearGradient id="paint2_linear_317_3153" x1="5.84999" y1="11.9965" x2="2.52658" y2="11.9965" gradientUnits="userSpaceOnUse">
<stop stop-color="#E62818"/>
<stop offset="1" stop-color="#FF6A5E"/>
</linearGradient>
</defs>
</svg>
