<?xml version="1.0" standalone="no"?>
<!DOCTYPE svg PUBLIC "-//W3C//DTD SVG 20010904//EN"
 "http://www.w3.org/TR/2001/REC-SVG-20010904/DTD/svg10.dtd">
<svg version="1.0" xmlns="http://www.w3.org/2000/svg"
 width="512.000000pt" height="512.000000pt" viewBox="0 0 512.000000 512.000000"
 preserveAspectRatio="xMidYMid meet">

<g transform="translate(0.000000,512.000000) scale(0.100000,-0.100000)"
fill="#000000" stroke="none">
<path d="M930 4999 c-218 -56 -391 -207 -514 -450 -101 -198 -150 -402 -149
-619 1 -205 44 -343 170 -540 99 -156 129 -215 159 -315 25 -83 27 -102 24
-230 -8 -362 -5 -436 19 -529 43 -166 107 -289 218 -422 176 -211 238 -370
250 -639 8 -204 -33 -404 -126 -600 -57 -120 -65 -157 -51 -220 22 -99 106
-178 203 -191 32 -5 48 -12 52 -25 3 -10 21 -31 40 -48 86 -75 211 -56 269 41
l23 39 6 -30 c8 -41 61 -97 104 -112 47 -15 128 -7 161 18 15 10 37 39 50 63
20 40 22 58 22 200 0 189 17 302 71 465 119 360 349 588 652 649 39 8 131 17
202 21 385 19 657 103 880 271 124 93 207 198 295 374 91 182 159 262 325 388
233 176 377 357 455 570 41 112 57 190 69 328 6 65 17 153 25 194 44 236 22
422 -65 553 -64 96 -188 157 -322 157 -78 0 -97 -9 -97 -46 0 -38 24 -51 106
-57 139 -10 232 -79 270 -200 25 -80 29 -244 9 -357 -9 -52 -23 -158 -31 -234
-16 -163 -40 -259 -94 -374 -78 -166 -200 -307 -387 -448 -175 -133 -281 -259
-353 -419 -156 -348 -488 -547 -975 -585 -71 -6 -177 -15 -234 -20 -343 -32
-636 -257 -786 -606 -79 -185 -115 -365 -121 -609 -3 -159 -5 -171 -25 -187
-29 -24 -55 -22 -83 5 -25 25 -39 108 -52 297 l-6 95 65 195 c99 300 189 484
315 642 124 155 233 232 468 329 175 72 317 146 442 230 l73 49 87 0 c156 0
290 40 409 120 76 51 99 83 89 123 -11 47 -48 46 -103 -3 -81 -71 -223 -129
-316 -130 -28 0 -26 3 44 78 133 142 188 241 295 537 44 123 94 209 174 300
33 39 94 108 135 155 122 141 361 351 568 499 73 52 87 67 87 90 0 34 -17 51
-50 51 -21 0 -199 -122 -307 -212 -7 -6 2 23 21 64 46 101 83 221 102 332 19
110 14 300 -10 391 -39 140 -113 253 -219 332 -80 59 -146 88 -249 109 -71 15
-97 15 -183 5 -459 -53 -956 -242 -1288 -489 -171 -127 -315 -286 -404 -445
-87 -156 -126 -290 -147 -504 -18 -172 -29 -197 -148 -322 l-77 -82 6 118 c7
154 -11 361 -49 553 -38 189 -33 228 37 330 62 90 96 171 101 238 6 70 -10
106 -49 110 -44 5 -57 -13 -57 -78 0 -32 -7 -75 -16 -96 -15 -39 -95 -163
-104 -164 -3 0 -20 37 -38 83 -18 45 -47 109 -65 142 -26 49 -37 61 -60 63
-16 2 -35 -2 -43 -9 -16 -13 -19 -60 -5 -75 14 -14 95 -209 124 -299 54 -164
93 -357 112 -548 l7 -68 -59 40 c-33 22 -100 57 -151 77 -134 53 -209 128
-227 227 -8 44 -43 72 -75 62 -35 -11 -41 -37 -24 -101 37 -145 101 -203 334
-307 140 -63 190 -133 190 -272 0 -97 -22 -235 -58 -370 -24 -91 -26 -116 -26
-285 0 -214 14 -299 89 -522 55 -165 70 -248 61 -347 -6 -72 -118 -640 -203
-1033 -36 -168 -39 -178 -61 -178 -61 0 -122 65 -122 129 0 20 20 79 49 140
95 206 133 373 133 591 0 277 -65 484 -207 665 -30 39 -78 99 -106 135 -139
177 -202 422 -177 680 6 63 8 165 5 225 -10 179 -50 293 -169 478 -147 228
-182 335 -183 547 0 204 37 361 128 550 124 255 315 402 555 425 298 30 549
-165 728 -564 51 -111 63 -126 98 -117 51 13 51 37 2 152 -145 338 -355 551
-604 615 -100 25 -250 25 -352 -2z m2812 -219 c170 -52 292 -186 334 -367 20
-84 22 -243 4 -343 -44 -257 -199 -544 -428 -795 -174 -190 -269 -343 -312
-500 -103 -381 -432 -693 -942 -896 -342 -135 -535 -319 -698 -662 -113 -238
-201 -510 -269 -826 -31 -145 -42 -164 -95 -159 -17 2 -37 14 -49 30 l-19 26
37 174 c95 447 184 746 326 1100 124 307 184 409 293 502 108 93 213 143 358
171 255 50 408 151 467 310 20 53 20 59 6 81 -28 44 -82 25 -100 -36 -35 -115
-165 -203 -353 -241 -131 -27 -238 -63 -307 -104 -32 -19 -59 -35 -62 -35 -6
0 93 184 185 345 91 157 193 317 316 489 77 109 104 138 174 191 152 114 322
192 531 245 133 34 223 69 301 118 166 103 250 262 138 262 -21 0 -33 -9 -52
-37 -34 -53 -91 -106 -161 -148 -59 -35 -122 -57 -320 -111 -55 -15 -135 -42
-178 -60 -89 -37 -90 -42 28 91 222 248 443 553 539 743 41 82 45 116 15 132
-39 22 -62 5 -104 -77 -21 -43 -78 -136 -125 -207 l-85 -130 -9 84 c-5 58 -4
109 4 163 14 88 7 107 -41 107 -53 0 -63 -37 -69 -265 -5 -188 -7 -203 -31
-255 -25 -53 -134 -186 -294 -360 -168 -183 -278 -321 -424 -534 l-78 -116 -7
73 c-4 39 -16 110 -27 157 -27 115 -39 225 -30 283 10 59 -7 87 -50 87 -25 0
-33 -6 -46 -37 -22 -53 -12 -206 22 -353 24 -100 26 -129 22 -220 -8 -144 -35
-230 -121 -390 -40 -74 -94 -173 -119 -220 -56 -105 -187 -386 -252 -540 -27
-63 -52 -119 -55 -123 -4 -5 -10 31 -12 80 -5 69 -17 122 -56 244 -75 229 -95
335 -95 504 0 281 69 454 264 661 113 120 159 220 159 343 0 59 30 218 56 299
34 102 95 223 162 315 68 95 221 245 322 316 267 188 626 327 1070 416 148 30
258 31 342 5z"/>
<path d="M2163 3709 c-31 -11 -40 -54 -18 -79 23 -25 57 -26 78 -2 22 24 21
45 0 64 -28 24 -37 26 -60 17z"/>
</g>
</svg>
