<?xml version="1.0" standalone="no"?>
<!DOCTYPE svg PUBLIC "-//W3C//DTD SVG 20010904//EN"
 "http://www.w3.org/TR/2001/REC-SVG-20010904/DTD/svg10.dtd">
<svg version="1.0" xmlns="http://www.w3.org/2000/svg"
 width="512.000000pt" height="512.000000pt" viewBox="0 0 512.000000 512.000000"
 preserveAspectRatio="xMidYMid meet">

<g transform="translate(0.000000,512.000000) scale(0.100000,-0.100000)"
fill="#000000" stroke="none">
<path d="M3425 4580 c-49 -4 -178 -13 -285 -20 -456 -26 -671 -69 -995 -197
-427 -169 -798 -416 -1146 -763 -297 -297 -516 -602 -683 -952 -169 -353 -256
-687 -277 -1063 -5 -99 -16 -263 -24 -365 -29 -365 -16 -446 93 -562 84 -90
178 -128 317 -128 39 0 153 7 255 15 102 8 269 19 372 25 370 20 673 97 1031
260 76 34 139 61 141 59 2 -2 18 -33 37 -68 43 -83 114 -155 183 -187 34 -16
116 -35 227 -54 583 -97 1110 -50 1590 144 74 30 226 89 339 131 329 124 423
183 476 299 81 176 60 262 -150 635 -52 91 -126 226 -165 299 -130 244 -265
426 -471 632 -94 95 -277 254 -338 295 -1 1 9 58 22 126 29 142 38 231 67 678
13 188 19 359 16 405 -12 147 -94 268 -226 329 -59 28 -74 31 -190 33 -69 1
-166 -1 -216 -6z m304 -141 c34 -7 64 -23 96 -51 93 -82 104 -140 81 -443 -9
-115 -20 -291 -26 -390 -10 -168 -27 -303 -52 -402 l-10 -41 -91 57 c-51 32
-136 82 -191 111 -87 47 -107 54 -171 58 -117 7 -225 -26 -345 -108 -234 -159
-465 -471 -630 -850 -26 -61 -50 -113 -52 -116 -3 -2 -35 27 -72 66 -73 77
-107 89 -146 50 -40 -40 -27 -71 71 -176 68 -74 89 -103 86 -119 -3 -11 -23
-90 -45 -175 -58 -224 -76 -362 -76 -570 0 -98 5 -201 12 -235 12 -57 11 -61
-9 -77 -12 -10 -27 -18 -34 -18 -18 0 -213 143 -390 285 -83 67 -158 124 -168
128 -45 17 -96 -36 -83 -87 7 -28 134 -136 355 -301 l133 -99 -41 -18 c-296
-125 -575 -189 -911 -208 -102 -5 -241 -15 -310 -21 -185 -17 -358 -17 -404 0
-48 17 -112 73 -136 120 -9 20 -21 59 -25 87 -6 44 14 405 43 774 l7 95 58
-77 c66 -86 95 -101 136 -70 48 35 41 71 -32 170 -35 48 -78 108 -95 133 l-31
46 19 81 c47 198 154 471 263 672 412 761 1151 1371 1932 1593 194 56 164 60
300 -38 66 -46 130 -85 143 -85 29 0 72 42 72 71 0 21 -37 62 -101 110 l-34
27 120 6 c66 4 226 15 355 25 287 22 364 24 429 10z m-324 -1250 c60 -16 144
-107 177 -190 49 -121 63 -216 62 -409 0 -96 -6 -211 -13 -255 -114 -726 -522
-1428 -914 -1574 -199 -74 -343 44 -403 330 -25 114 -25 371 0 529 42 274 135
563 268 831 100 203 212 370 334 498 192 202 348 278 489 240z m566 -371 c269
-219 522 -516 641 -753 17 -33 87 -161 156 -285 178 -321 205 -379 206 -448 0
-66 -26 -132 -70 -176 -40 -39 -131 -83 -324 -156 -91 -34 -243 -93 -338 -131
-95 -38 -221 -83 -280 -100 -294 -83 -705 -117 -1009 -83 l-53 6 43 31 c273
195 530 585 692 1048 156 450 194 861 110 1193 l-8 29 60 -41 c34 -23 112 -83
174 -134z"/>
<path d="M2190 3878 c-43 -46 -29 -71 102 -184 56 -49 139 -123 184 -165 44
-42 91 -82 103 -89 52 -27 118 40 90 92 -15 29 -236 234 -367 341 -41 33 -84
35 -112 5z"/>
<path d="M990 2540 c-12 -12 -20 -33 -20 -54 0 -30 21 -54 203 -240 167 -171
207 -207 230 -206 37 0 67 33 67 73 -1 28 -26 57 -203 240 -217 221 -232 232
-277 187z"/>
</g>
</svg>
