<svg width="40" height="40" viewBox="0 0 40 40" fill="none" xmlns="http://www.w3.org/2000/svg">
<rect width="40" height="40" rx="20" fill="black"/>
<path d="M25.5772 16.1074C27.3778 17.3991 29.5836 18.1591 31.966 18.1591V13.5584C31.5151 13.5584 31.0654 13.5113 30.6243 13.4175V17.0389C28.2421 17.0389 26.0366 16.2789 24.2356 14.9873V24.376C24.2356 29.0727 20.4417 32.8799 15.7619 32.8799C14.0158 32.8799 12.3929 32.3501 11.0447 31.4415C12.5834 33.0204 14.7293 33.9999 17.1033 33.9999C21.7833 33.9999 25.5774 30.1928 25.5774 25.4959V16.1074H25.5772V16.1074ZM27.2323 11.4658C26.3122 10.4569 25.708 9.1531 25.5772 7.71168V7.11993H24.3058C24.6258 8.95197 25.7174 10.5172 27.2323 11.4658ZM14.0046 27.8374C13.4905 27.1609 13.2127 26.3333 13.2139 25.4824C13.2139 23.3343 14.9492 21.5926 17.0901 21.5926C17.4891 21.5925 17.8857 21.6538 18.2659 21.7749V17.0714C17.8216 17.0103 17.3731 16.9843 16.9248 16.9938V20.6548C16.5443 20.5337 16.1475 20.4722 15.7484 20.4726C13.6075 20.4726 11.8723 22.2142 11.8723 24.3625C11.8723 25.8816 12.7397 27.1967 14.0046 27.8374Z" fill="#FF004F"/>
<path d="M24.2356 14.9872C26.0367 16.2788 28.2422 17.0388 30.6243 17.0388V13.4174C29.2946 13.1331 28.1175 12.4358 27.2324 11.4658C25.7174 10.5171 24.6259 8.95188 24.3059 7.11993H20.9662V25.4957C20.9586 27.6379 19.2263 29.3725 17.09 29.3725C15.8311 29.3725 14.7127 28.7703 14.0044 27.8374C12.7396 27.1967 11.8722 25.8815 11.8722 24.3626C11.8722 22.2144 13.6074 20.4727 15.7483 20.4727C16.1585 20.4727 16.5538 20.5368 16.9247 20.6549V16.9939C12.3272 17.0892 8.62964 20.8592 8.62964 25.4958C8.62964 27.8103 9.55041 29.9085 11.0448 31.4416C12.393 32.3501 14.016 32.88 15.7621 32.88C20.4419 32.88 24.2357 29.0726 24.2357 24.376V14.9872H24.2356Z" fill="white"/>
<path d="M30.6244 13.4174V12.4382C29.4253 12.4401 28.2498 12.1031 27.2324 11.4658C28.133 12.4552 29.3189 13.1375 30.6244 13.4174ZM24.3059 7.11998C24.2754 6.9449 24.2519 6.76866 24.2356 6.59175V6H19.6244V24.3759C19.6171 26.5179 17.8848 28.2525 15.7483 28.2525C15.1211 28.2525 14.5289 28.1031 14.0044 27.8375C14.7127 28.7703 15.8311 29.3725 17.09 29.3725C19.2261 29.3725 20.9587 27.6381 20.9662 25.4958V7.11998H24.3059ZM16.9249 16.994V15.9515C16.5396 15.8987 16.1511 15.8722 15.7622 15.8724C11.082 15.8723 7.28809 19.6796 7.28809 24.3759C7.28809 27.3203 8.77915 29.9151 11.0449 31.4415C9.55053 29.9085 8.62976 27.8102 8.62976 25.4957C8.62976 20.8593 12.3272 17.0893 16.9249 16.994Z" fill="#00F2EA"/>
</svg>
